<?xml version="1.0" encoding="UTF-8" standalone="no"?>
<!-- Created with Inkscape (http://www.inkscape.org/) -->

<svg
   width="17.99828mm"
   height="17.432888mm"
   viewBox="0 0 17.99828 17.432888"
   version="1.1"
   id="svg1"
   xmlns="http://www.w3.org/2000/svg"
   xmlns:svg="http://www.w3.org/2000/svg">
  <defs
     id="defs1">
    <rect
       x="109.98406"
       y="108.82083"
       width="78.557823"
       height="68.433945"
       id="rect7" />
    <rect
       x="222.32652"
       y="123.69021"
       width="419.39792"
       height="386.33978"
       id="rect1" />
    <rect
       x="222.32652"
       y="123.69021"
       width="419.39792"
       height="386.33978"
       id="rect1-8" />
    <rect
       x="222.32652"
       y="123.69021"
       width="419.39792"
       height="386.33978"
       id="rect1-8-9" />
  </defs>
  <text
     xml:space="preserve"
     transform="matrix(0.26458333,0,0,0.26458333,-19.027335,-11.813293)"
     id="text7"
     style="font-style:normal;font-variant:normal;font-weight:normal;font-stretch:normal;font-size:53.3333px;font-family:Baloo;-inkscape-font-specification:Baloo;text-align:center;white-space:pre;shape-inside:url(#rect7);display:inline;fill:#000000;stroke-width:6;stroke-linejoin:bevel" />
  <text
     xml:space="preserve"
     style="font-style:normal;font-variant:normal;font-weight:normal;font-stretch:normal;font-size:14.1111px;font-family:Baloo;-inkscape-font-specification:Baloo;text-align:center;text-anchor:middle;fill:#000000;stroke-width:1.5875;stroke-linejoin:bevel"
     x="4.274951"
     y="26.261276"
     id="text8"><tspan
       id="tspan8"
       style="stroke-width:1.5875"
       x="4.274951"
       y="26.261276" /></text>
  <path
     id="path1-9-0"
     style="fill:#ffffff;stroke-width:1.7214;stroke-linejoin:bevel"
     d="M 12.932861,0.90487314 A 9,9 0 0 0 6.6709699,0.30652414 9,9 0 0 0 0.30675887,11.32966 9,9 0 0 0 4.3067549,16.65602 6,9 30 0 1 4.1119059,16.496378 4.5,8.9999999 29.999995 0 1 4.0207659,16.421688 6,9 30 0 1 3.8040509,5.9997751 6,9 30 0 1 12.937792,0.97694514 a 4.5,8.9999999 29.999995 0 1 0.107757,0.04074 6,9 30 0 1 0.238169,0.08977 9,9 0 0 0 -0.350864,-0.20257096 z m 0.906698,0.52348096 a 6,9 30 0 1 0.01844,0.01665 9.0000009,8.9999999 74.257177 0 1 0.03783,0.02542 9,9 0 0 0 -0.05626,-0.04207 z m 0.986322,0.735936 a 9.0000009,8.9999999 74.257177 0 1 0.161029,0.140702 9,9 0 0 0 -0.161029,-0.140702 z m 0.905513,0.890371 a 9.0000009,8.9999999 74.257177 0 1 0.179654,0.204563 9,9 0 0 0 -0.179654,-0.204563 z m 0.780637,1.022944 a 9.0000009,8.9999999 74.257177 0 1 0.160205,0.239284 9,9 0 0 0 -0.160205,-0.239284 z m 0.645176,1.158355 a 9.0000009,8.9999999 74.257177 0 1 0.110659,0.223808 9,9 0 0 0 -0.110659,-0.223808 z m 0.536453,1.434517 a 9.0000009,8.9999999 74.257177 0 1 0.222242,1.118848 9,9 0 0 0 -0.222242,-1.118848 z m 0.23157,1.183308 a 9.0000009,8.9999999 74.257177 0 1 0.07305,1.11267 9,9 0 0 0 -0.07305,-1.11267 z m 0.0722,1.188558 a 9.0000009,8.9999999 74.257177 0 1 -0.07375,1.1323349 9,9 0 0 0 0.07375,-1.1323349 z m -0.07401,1.1327839 a 9.0000009,8.9999999 74.257177 0 1 -0.22239,1.116928 9,9 0 0 0 0.22239,-1.116928 z m -0.23929,1.182358 a 9.0000009,8.9999999 74.257177 0 1 -0.359948,1.059594 9,9 0 0 0 0.359948,-1.059594 z m -0.38482,1.119227 a 9.0000009,8.9999999 74.257177 0 1 -0.505026,1.02357 9.0000009,8.9999999 74.257177 0 1 -0.121804,0.20058 9,9 0 0 0 0.626808,-1.224165 z m -0.725668,1.386073 a 9.0000009,8.9999999 74.257177 0 1 -0.11433,0.169094 9,9 0 0 0 0.11433,-0.169094 z m -0.239313,0.353523 a 9.0000009,8.9999999 74.257177 0 1 -0.129673,0.173961 9,9 0 0 0 0.129673,-0.173961 z m -0.258437,0.344268 a 9.0000009,8.9999999 74.257177 0 1 -0.124708,0.152959 9,9 0 0 0 0.124708,-0.152959 z m -0.277114,0.335274 a 9.0000009,8.9999999 74.257177 0 1 -0.127545,0.142374 9,9 0 0 0 0.127545,-0.142374 z m -0.287279,0.315682 a 9.0000009,8.9999999 74.257177 0 1 -0.137602,0.140147 9,9 0 0 0 0.137602,-0.140147 z m -0.306144,0.305992 a 9.0000009,8.9999999 74.257177 0 1 -0.139216,0.128469 9,9 0 0 0 0.139216,-0.128469 z m -0.322428,0.291803 a 9.0000009,8.9999999 74.257177 0 1 -0.146048,0.122741 9,9 0 0 0 0.146048,-0.122741 z m -0.31665,0.261134 a 9.0000009,8.9999999 74.257177 0 1 -0.179833,0.137839 9,9 0 0 0 0.179833,-0.137839 z m -0.352426,0.263151 a 9.0000009,8.9999999 74.257177 0 1 -0.157078,0.109807 9,9 0 0 0 0.157078,-0.109807 z m -0.365108,0.246878 a 9.0000009,8.9999999 74.257177 0 1 -0.161916,0.101647 9,9 0 0 0 0.161916,-0.101647 z m -0.366856,0.222004 a 9.0000009,8.9999999 74.257177 0 1 -0.161548,0.09171 9,9 0 0 0 0.161548,-0.09171 z m -0.374786,0.203704 a 9.0000009,8.9999999 74.257177 0 1 -0.178594,0.09022 9,9 0 0 0 0.178594,-0.09022 z m -0.360299,0.174467 a 9.0000009,8.9999999 74.257177 0 1 -0.213424,0.09577 9,9 0 0 0 0.213424,-0.09577 z m -0.394953,0.169382 a 9.0000009,8.9999999 74.257177 0 1 -0.208943,0.08284 9,9 0 0 0 0.208943,-0.08284 z" />
  <path
     id="rect8"
     style="fill:#ffffff;stroke-width:0.780004;stroke-linejoin:bevel"
     d="m 5.7326809,5.9845541 a 2.4292417,2.3450767 86.202854 0 0 0.0078,3.434849 l 1.654554,1.7134049 0.827275,0.856702 c 0.458328,0.474629 1.196402,0.474811 1.654729,1.84e-4 l 1.6545601,-1.713408 0.827275,-0.8567009 a 2.3450767,2.4292417 3.7971455 0 0 0.0077,-3.435031 2.3450767,2.4292417 3.7971455 0 0 -3.3168671,0.008 2.4292417,2.3450767 86.202854 0 0 -3.316869,-0.008 z" />
</svg>
