<?xml version="1.0" encoding="UTF-8" standalone="no"?>
<!-- Created with Inkscape (http://www.inkscape.org/) -->

<svg
   width="53.026619mm"
   height="17.432888mm"
   viewBox="0 0 53.026619 17.432888"
   version="1.1"
   id="svg1"
   xmlns="http://www.w3.org/2000/svg"
   xmlns:svg="http://www.w3.org/2000/svg">
  <defs
     id="defs1">
    <rect
       x="109.98406"
       y="108.82083"
       width="78.557823"
       height="68.433945"
       id="rect7" />
    <rect
       x="222.32652"
       y="123.69021"
       width="419.39792"
       height="386.33978"
       id="rect1" />
    <rect
       x="222.32652"
       y="123.69021"
       width="419.39792"
       height="386.33978"
       id="rect1-8" />
    <rect
       x="222.32652"
       y="123.69021"
       width="419.39792"
       height="386.33978"
       id="rect1-8-9" />
  </defs>
  <g
     id="layer1"
     transform="translate(-19.027335,-11.813293)">
    <text
       xml:space="preserve"
       transform="scale(0.26458333)"
       id="text7"
       style="font-style:normal;font-variant:normal;font-weight:normal;font-stretch:normal;font-size:53.3333px;font-family:Baloo;-inkscape-font-specification:Baloo;text-align:center;white-space:pre;shape-inside:url(#rect7);display:inline;fill:#000000;stroke-width:6;stroke-linejoin:bevel" />
    <text
       xml:space="preserve"
       style="font-style:normal;font-variant:normal;font-weight:normal;font-stretch:normal;font-size:14.1111px;font-family:Baloo;-inkscape-font-specification:Baloo;text-align:center;text-anchor:middle;fill:#000000;stroke-width:1.5875;stroke-linejoin:bevel"
       x="23.302286"
       y="38.07457"
       id="text8"><tspan
         id="tspan8"
         style="stroke-width:1.5875"
         x="23.302286"
         y="38.07457"></tspan></text>
    <path
       d="m 373.49204,157.02758 q 0,1.38666 0.85334,1.97333 0.90666,0.58667 2.50666,0.58667 0.8,0 1.65333,-0.10667 0.85334,-0.16 1.49334,-0.37333 0.48,0.58666 0.8,1.33333 0.37333,0.69333 0.37333,1.70667 0,2.02666 -1.54667,3.30666 -1.49333,1.28 -5.33333,1.28 -4.69333,0 -7.25333,-2.13333 -2.50666,-2.13334 -2.50666,-6.93333 v -22.82666 q 0.58666,-0.16 1.65333,-0.32 1.12,-0.21333 2.34667,-0.21333 2.34666,0 3.62666,0.85333 1.33333,0.8 1.33333,3.46667 v 3.41333 h 6.98667 q 0.32,0.58667 0.58666,1.49333 0.32,0.85334 0.32,1.92 0,1.86667 -0.85333,2.72 -0.8,0.8 -2.18667,0.8 h -4.85333 z m 17.54665,14.55999 q -0.74666,0.10667 -1.44,0.10667 -0.69333,0.0533 -1.28,0.0533 -2.24,0 -3.46666,-0.96 -1.17333,-0.96 -1.17333,-3.09333 0,-1.44 0.42666,-2.88 0.42667,-1.49333 0.74667,-2.61333 l 9.38666,-33.86665 q 0.8,-0.10666 1.49333,-0.10666 0.69333,-0.0533 1.28,-0.0533 2.13333,0 3.36,0.90667 1.28,0.90666 1.28,2.93333 0,1.54667 -0.42667,2.93333 -0.42666,1.38667 -0.8,2.77333 z m 34.08002,-13.38666 q 0,4.05333 -3.04,6.34666 -3.04,2.29334 -8.95999,2.29334 -2.24,0 -4.16,-0.32 -1.92,-0.32 -3.30666,-0.96 -1.33334,-0.69334 -2.13334,-1.70667 -0.74666,-1.01333 -0.74666,-2.4 0,-1.28 0.53333,-2.13333 0.53333,-0.90667 1.28,-1.49333 1.54667,0.85333 3.52,1.54666 2.02666,0.64 4.63999,0.64 1.65334,0 2.50667,-0.48 0.90667,-0.48 0.90667,-1.28 0,-0.74666 -0.64,-1.17333 -0.64,-0.42667 -2.13334,-0.69333 l -1.59999,-0.32 q -4.64,-0.90667 -6.93333,-2.82667 -2.24,-1.97333 -2.24,-5.59999 0,-1.97334 0.85333,-3.57333 0.85333,-1.6 2.4,-2.66667 1.54666,-1.06667 3.68,-1.65333 2.18666,-0.58667 4.79999,-0.58667 1.97334,0 3.68,0.32 1.76,0.26667 3.04,0.85333 1.28,0.58667 2.02667,1.54667 0.74666,0.90667 0.74666,2.18667 0,1.22666 -0.48,2.13333 -0.42666,0.85333 -1.12,1.44 -0.42666,-0.26667 -1.28,-0.53334 -0.85333,-0.32 -1.86666,-0.53333 -1.01334,-0.26667 -2.08,-0.42667 -1.01333,-0.16 -1.86667,-0.16 -1.76,0 -2.72,0.42667 -0.95999,0.37333 -0.95999,1.22667 0,0.58666 0.53333,0.96 0.53333,0.37333 2.02666,0.69333 l 1.65334,0.37333 q 5.11999,1.17334 7.25333,3.25333 2.18666,2.02667 2.18666,5.28 z m 4.37337,-17.81332 q 0.53333,-0.16 1.65333,-0.32 1.17333,-0.16 2.4,-0.16 1.17333,0 2.08,0.16 0.96,0.16 1.6,0.64 0.64,0.48 0.96,1.33333 0.37333,0.8 0.37333,2.13333 v 11.46666 q 0,2.18667 1.06667,3.14667 1.06666,0.90666 3.09333,0.90666 1.22666,0 1.97333,-0.21333 0.8,-0.21333 1.22666,-0.42667 v -18.66665 q 0.53334,-0.16 1.65334,-0.32 1.17333,-0.16 2.4,-0.16 1.17333,0 2.07999,0.16 0.96,0.16 1.6,0.64 0.64,0.48 0.96,1.33333 0.37334,0.8 0.37334,2.13333 v 16.21333 q 0,2.66666 -2.24,3.99999 -1.86667,1.17334 -4.48,1.76 -2.56,0.64 -5.6,0.64 -2.87999,0 -5.33333,-0.64 -2.4,-0.64 -4.15999,-1.97333 -1.76,-1.33333 -2.72,-3.41333 -0.96,-2.13333 -0.96,-5.12 z m 56.37333,20.85332 q -0.26666,2.50666 -1.49333,3.84 -1.17333,1.33333 -3.46666,1.33333 -1.70667,0 -3.04,-0.8 -1.33334,-0.85333 -2.88,-2.82667 l -5.28,-6.61332 v 9.70666 q -0.58666,0.10666 -1.76,0.26666 -1.12,0.21334 -2.29333,0.21334 -1.17333,0 -2.13333,-0.16 -0.90667,-0.16 -1.54667,-0.64 -0.64,-0.48 -1.01333,-1.28 -0.32,-0.85334 -0.32,-2.18667 v -30.87998 q 0.58667,-0.16 1.70667,-0.32 1.17333,-0.21333 2.34666,-0.21333 1.17333,0 2.08,0.16 0.96,0.16 1.6,0.64 0.64,0.48 0.96,1.33333 0.37333,0.8 0.37333,2.13333 v 14.07999 l 9.17333,-9.38666 q 2.77333,0 4.42666,1.22667 1.70667,1.22666 1.70667,3.09333 0,0.8 -0.26667,1.49333 -0.26666,0.64 -0.85333,1.33333 -0.53333,0.69334 -1.44,1.49334 -0.85333,0.74666 -2.02666,1.76 l -3.09334,2.66666 z m 4.05335,-28.42665 q 0,-2.02667 1.33333,-3.41333 1.38667,-1.38667 3.62667,-1.38667 2.24,0 3.57333,1.38667 1.38666,1.38666 1.38666,3.41333 0,2.02666 -1.38666,3.41333 -1.33333,1.38667 -3.57333,1.38667 -2.24,0 -3.62667,-1.38667 -1.33333,-1.38667 -1.33333,-3.41333 z m 9.49333,33.06665 q -0.58667,0.10666 -1.76,0.26666 -1.12,0.21334 -2.29333,0.21334 -1.17334,0 -2.13334,-0.16 -0.90666,-0.16 -1.54666,-0.64 -0.64,-0.48 -1.01333,-1.28 -0.32,-0.85334 -0.32,-2.18667 v -21.70665 q 0.58666,-0.10667 1.70666,-0.26667 1.17333,-0.21333 2.34667,-0.21333 1.17333,0 2.08,0.16 0.95999,0.16 1.59999,0.64 0.64,0.48 0.96,1.33333 0.37334,0.8 0.37334,2.13333 z"
       id="text1"
       style="font-size:53.3333px;font-family:Baloo;-inkscape-font-specification:Baloo;text-align:center;text-anchor:middle;white-space:pre;fill:#ffffff;stroke-width:6;stroke-linejoin:bevel"
       transform="matrix(0.26458333,0,0,0.26458333,-60.195048,-19.126255)"
       aria-label="t/suki" />
    <path
       id="path1-9-0"
       style="fill:#ffffff;stroke-width:1.7214;stroke-linejoin:bevel"
       d="m 31.960196,12.718166 a 9,9 0 0 0 -6.261891,-0.598349 9,9 0 0 0 -6.364211,11.023136 9,9 0 0 0 3.999996,5.32636 6,9 30 0 1 -0.194849,-0.159642 4.5,8.9999999 29.999995 0 1 -0.09114,-0.07469 6,9 30 0 1 -0.216715,-10.421913 6,9 30 0 1 9.133741,-5.02283 4.5,8.9999999 29.999995 0 1 0.107757,0.04074 6,9 30 0 1 0.238169,0.08977 9,9 0 0 0 -0.350864,-0.202571 z m 0.906698,0.523481 a 6,9 30 0 1 0.01844,0.01665 9.0000009,8.9999999 74.257177 0 1 0.03783,0.02542 9,9 0 0 0 -0.05626,-0.04207 z m 0.986322,0.735936 a 9.0000009,8.9999999 74.257177 0 1 0.161029,0.140702 9,9 0 0 0 -0.161029,-0.140702 z m 0.905513,0.890371 a 9.0000009,8.9999999 74.257177 0 1 0.179654,0.204563 9,9 0 0 0 -0.179654,-0.204563 z m 0.780637,1.022944 a 9.0000009,8.9999999 74.257177 0 1 0.160205,0.239284 9,9 0 0 0 -0.160205,-0.239284 z m 0.645176,1.158355 a 9.0000009,8.9999999 74.257177 0 1 0.110659,0.223808 9,9 0 0 0 -0.110659,-0.223808 z m 0.536453,1.434517 a 9.0000009,8.9999999 74.257177 0 1 0.222242,1.118848 9,9 0 0 0 -0.222242,-1.118848 z m 0.23157,1.183308 a 9.0000009,8.9999999 74.257177 0 1 0.07305,1.11267 9,9 0 0 0 -0.07305,-1.11267 z m 0.0722,1.188558 a 9.0000009,8.9999999 74.257177 0 1 -0.07375,1.132335 9,9 0 0 0 0.07375,-1.132335 z m -0.07401,1.132784 a 9.0000009,8.9999999 74.257177 0 1 -0.22239,1.116928 9,9 0 0 0 0.22239,-1.116928 z m -0.23929,1.182358 a 9.0000009,8.9999999 74.257177 0 1 -0.359948,1.059594 9,9 0 0 0 0.359948,-1.059594 z m -0.38482,1.119227 a 9.0000009,8.9999999 74.257177 0 1 -0.505026,1.02357 9.0000009,8.9999999 74.257177 0 1 -0.121804,0.20058 9,9 0 0 0 0.626808,-1.224165 z m -0.725668,1.386073 a 9.0000009,8.9999999 74.257177 0 1 -0.11433,0.169094 9,9 0 0 0 0.11433,-0.169094 z m -0.239313,0.353523 a 9.0000009,8.9999999 74.257177 0 1 -0.129673,0.173961 9,9 0 0 0 0.129673,-0.173961 z m -0.258437,0.344268 a 9.0000009,8.9999999 74.257177 0 1 -0.124708,0.152959 9,9 0 0 0 0.124708,-0.152959 z m -0.277114,0.335274 a 9.0000009,8.9999999 74.257177 0 1 -0.127545,0.142374 9,9 0 0 0 0.127545,-0.142374 z m -0.287279,0.315682 a 9.0000009,8.9999999 74.257177 0 1 -0.137602,0.140147 9,9 0 0 0 0.137602,-0.140147 z m -0.306144,0.305992 a 9.0000009,8.9999999 74.257177 0 1 -0.139216,0.128469 9,9 0 0 0 0.139216,-0.128469 z m -0.322428,0.291803 a 9.0000009,8.9999999 74.257177 0 1 -0.146048,0.122741 9,9 0 0 0 0.146048,-0.122741 z m -0.31665,0.261134 a 9.0000009,8.9999999 74.257177 0 1 -0.179833,0.137839 9,9 0 0 0 0.179833,-0.137839 z m -0.352426,0.263151 a 9.0000009,8.9999999 74.257177 0 1 -0.157078,0.109807 9,9 0 0 0 0.157078,-0.109807 z m -0.365108,0.246878 a 9.0000009,8.9999999 74.257177 0 1 -0.161916,0.101647 9,9 0 0 0 0.161916,-0.101647 z m -0.366856,0.222004 a 9.0000009,8.9999999 74.257177 0 1 -0.161548,0.09171 9,9 0 0 0 0.161548,-0.09171 z m -0.374786,0.203704 a 9.0000009,8.9999999 74.257177 0 1 -0.178594,0.09022 9,9 0 0 0 0.178594,-0.09022 z m -0.360299,0.174467 a 9.0000009,8.9999999 74.257177 0 1 -0.213424,0.09577 9,9 0 0 0 0.213424,-0.09577 z m -0.394953,0.169382 a 9.0000009,8.9999999 74.257177 0 1 -0.208943,0.08284 9,9 0 0 0 0.208943,-0.08284 z" />
    <path
       id="rect8"
       style="fill:#ffffff;stroke-width:0.780004;stroke-linejoin:bevel"
       d="m 24.760016,17.797847 a 2.4292417,2.3450767 86.202854 0 0 0.0078,3.434849 l 1.654554,1.713405 0.827275,0.856702 c 0.458328,0.474629 1.196402,0.474811 1.654729,1.84e-4 l 1.65456,-1.713408 0.827275,-0.856701 a 2.3450767,2.4292417 3.7971455 0 0 0.0077,-3.435031 2.3450767,2.4292417 3.7971455 0 0 -3.316867,0.008 2.4292417,2.3450767 86.202854 0 0 -3.316869,-0.008 z" />
  </g>
</svg>
